<svg xmlns="http://www.w3.org/2000/svg" width="28" height="29" viewBox="0 0 28 29" fill="none">
  <path fill-rule="evenodd" clip-rule="evenodd" d="M4.9585 10.6072C4.9585 5.86825 9.06687 2.13184 14.0002 2.13184C18.9335 2.13184 23.0418 5.86825 23.0418 10.6072C23.0418 15.0536 20.2851 20.2736 15.8374 22.1743C14.6698 22.6732 13.3306 22.6732 12.1629 22.1743C7.7152 20.2736 4.9585 15.0536 4.9585 10.6072ZM14.0002 3.88184C9.91281 3.88184 6.7085 6.95106 6.7085 10.6072C6.7085 14.4903 9.16483 18.99 12.8506 20.565C13.579 20.8763 14.4213 20.8763 15.1497 20.565C18.8355 18.99 21.2918 14.4903 21.2918 10.6072C21.2918 6.95106 18.0875 3.88184 14.0002 3.88184ZM14.0002 9.71517C13.1947 9.71517 12.5418 10.3681 12.5418 11.1735C12.5418 11.9789 13.1947 12.6318 14.0002 12.6318C14.8056 12.6318 15.4585 11.9789 15.4585 11.1735C15.4585 10.3681 14.8056 9.71517 14.0002 9.71517ZM10.7918 11.1735C10.7918 9.40159 12.2282 7.96517 14.0002 7.96517C15.7721 7.96517 17.2085 9.40159 17.2085 11.1735C17.2085 12.9454 15.7721 14.3818 14.0002 14.3818C12.2282 14.3818 10.7918 12.9454 10.7918 11.1735ZM4.19481 18.1695C4.51917 18.5277 4.49174 19.0811 4.13352 19.4054C3.47122 20.0052 3.2085 20.5792 3.2085 21.0902C3.2085 21.9811 4.05317 23.0791 6.10965 24.0045C8.084 24.893 10.8729 25.4652 14.0002 25.4652C17.1274 25.4652 19.9163 24.893 21.8907 24.0045C23.9471 23.0791 24.7918 21.9811 24.7918 21.0902C24.7918 20.5792 24.5291 20.0052 23.8668 19.4054C23.5086 19.0811 23.4811 18.5277 23.8055 18.1695C24.1299 17.8113 24.6832 17.7839 25.0414 18.1082C25.9316 18.9143 26.5418 19.9248 26.5418 21.0902C26.5418 23.0987 24.7748 24.6257 22.6088 25.6004C20.3607 26.6121 17.3163 27.2152 14.0002 27.2152C10.6841 27.2152 7.63967 26.6121 5.39151 25.6004C3.22549 24.6257 1.4585 23.0987 1.4585 21.0902C1.4585 19.9248 2.06872 18.9143 2.95889 18.1082C3.3171 17.7839 3.87044 17.8113 4.19481 18.1695Z" fill="white"/>
</svg>