<svg width="33" height="32" viewBox="0 0 33 32" fill="none" xmlns="http://www.w3.org/2000/svg">
<path fill-rule="evenodd" clip-rule="evenodd" d="M16.5597 31.1942C25.1753 31.1942 32.1595 24.2099 32.1595 15.5944C32.1595 6.97889 25.1753 -0.00537109 16.5597 -0.00537109C7.94422 -0.00537109 0.959961 6.97889 0.959961 15.5944C0.959961 24.2099 7.94422 31.1942 16.5597 31.1942ZM18.1604 11.3434C17.7903 11.0835 17.3711 10.8147 16.9372 10.5507C15.2642 9.53343 14.4278 9.02477 13.6775 9.58794C12.9273 10.1511 12.8592 11.3301 12.7228 13.6879C12.6842 14.3548 12.6598 15.0085 12.6598 15.5945C12.6598 16.1805 12.6842 16.8342 12.7228 17.501C12.8591 19.8589 12.9273 21.0378 13.6775 21.601C14.4278 22.1642 15.2642 21.6555 16.9372 20.6382C17.3711 20.3743 17.7903 20.1054 18.1604 19.8455C18.5823 19.5493 19.0415 19.1938 19.5044 18.8161C21.1812 17.4482 22.0197 16.7643 22.0197 15.5945C22.0197 14.4247 21.1812 13.7407 19.5044 12.3728C19.0415 11.9952 18.5823 11.6397 18.1604 11.3434Z" fill="#BE2F35"/>
</svg>
